<?xml version="1.0" encoding="UTF-8" standalone="no"?>

<svg
   xmlns:osb="http://www.openswatchbook.org/uri/2009/osb"
   xmlns:dc="http://purl.org/dc/elements/1.1/"
   xmlns:cc="http://creativecommons.org/ns#"
   xmlns:rdf="http://www.w3.org/1999/02/22-rdf-syntax-ns#"
   xmlns:svg="http://www.w3.org/2000/svg"
   xmlns="http://www.w3.org/2000/svg"
   xmlns:sodipodi="http://sodipodi.sourceforge.net/DTD/sodipodi-0.dtd"
   xmlns:inkscape="http://www.inkscape.org/namespaces/inkscape"
   width="500"
   height="500"
   id="svg2"
   version="1.1"
   inkscape:version="0.48.5 r10040"
   sodipodi:docname="gear.svg">
  <sodipodi:namedview
     id="base"
     pagecolor="#ffffff"
     bordercolor="#666666"
     borderopacity="1.0"
     inkscape:pageopacity="0.0"
     inkscape:pageshadow="2"
     inkscape:zoom="0.35"
     inkscape:cx="167.26219"
     inkscape:cy="100.5009"
     inkscape:document-units="px"
     inkscape:current-layer="layer2"
     showgrid="true"
     inkscape:window-width="1920"
     inkscape:window-height="1018"
     inkscape:window-x="-8"
     inkscape:window-y="-8"
     inkscape:window-maximized="1"
     inkscape:snap-grids="false"
     inkscape:snap-to-guides="true"
     inkscape:snap-page="true">
    <inkscape:grid
       id="grid4035"
       type="xygrid"
       empspacing="5"
       visible="true"
       enabled="true"
       snapvisiblegridlinesonly="true" />
  </sodipodi:namedview>
  <defs
     id="defs4">
    <linearGradient
       id="linearGradient5587"
       osb:paint="solid">
      <stop
         style="stop-color:#000000;stop-opacity:1;"
         offset="0"
         id="stop5589" />
    </linearGradient>
    <filter
       inkscape:label="Comics draft"
       inkscape:menu-tooltip="Draft painted cartoon shading with a glassy look"
       inkscape:menu="Non realistic 3D shaders"
       height="1.5"
       y="-0.25"
       width="1.5"
       x="-0.25"
       color-interpolation-filters="sRGB"
       id="filter5817">
      <feGaussianBlur
         stdDeviation="7"
         result="result8"
         id="feGaussianBlur5819" />
      <feComposite
         in2="result8"
         result="result6"
         operator="xor"
         in="result8"
         id="feComposite5821" />
      <feDisplacementMap
         in="SourceGraphic"
         in2="result6"
         xChannelSelector="A"
         yChannelSelector="A"
         scale="100"
         result="result4"
         id="feDisplacementMap5823" />
      <feComposite
         in2="result4"
         result="result2"
         operator="arithmetic"
         in="SourceGraphic"
         k1="1"
         id="feComposite5825"
         k2="0"
         k3="0"
         k4="0" />
      <feComposite
         result="fbSourceGraphic"
         in="result6"
         operator="in"
         in2="result2"
         id="feComposite5827" />
    </filter>
    <filter
       inkscape:label="Comics draft"
       inkscape:menu-tooltip="Draft painted cartoon shading with a glassy look"
       inkscape:menu="Non realistic 3D shaders"
       height="1.5"
       y="-0.25"
       width="1.5"
       x="-0.25"
       color-interpolation-filters="sRGB"
       id="filter5829">
      <feGaussianBlur
         stdDeviation="7"
         result="result8"
         id="feGaussianBlur5831" />
      <feComposite
         in2="result8"
         result="result6"
         operator="xor"
         in="result8"
         id="feComposite5833" />
      <feDisplacementMap
         in="SourceGraphic"
         in2="result6"
         xChannelSelector="A"
         yChannelSelector="A"
         scale="100"
         result="result4"
         id="feDisplacementMap5835" />
      <feComposite
         in2="result4"
         result="result2"
         operator="arithmetic"
         in="SourceGraphic"
         k1="1"
         id="feComposite5837"
         k2="0"
         k3="0"
         k4="0" />
      <feComposite
         result="fbSourceGraphic"
         in="result6"
         operator="in"
         in2="result2"
         id="feComposite5839" />
    </filter>
  </defs>
  <metadata
     id="metadata7">
    <rdf:RDF>
      <cc:Work
         rdf:about="">
        <dc:format>image/svg+xml</dc:format>
        <dc:type
           rdf:resource="http://purl.org/dc/dcmitype/StillImage" />
        <dc:title></dc:title>
      </cc:Work>
    </rdf:RDF>
  </metadata>
  <g
     id="layer1"
     inkscape:groupmode="layer"
     inkscape:label="Layer 1"
     transform="translate(0,-552.36218)" />
  <g
     inkscape:label="Layer"
     id="layer2"
     inkscape:groupmode="layer"
     transform="translate(0,-552.36218)">
    <g
       id="g5841"
       transform="translate(-116.91041,297.4985)">
      <g
         inkscape:label="Gear25"
         transform="translate(366.54434,504.84524)"
         id="g4100">
        <path
           inkscape:connector-curvature="0"
           style="fill:none;stroke:#000000"
           d="m 182.646,-11.82 12.866,-0.833 3.039,0.161 16.158,4.448 0,16.088 -16.158,4.448 -3.039,0.161 -12.866,-0.833 -2.799,22.153 12.67,2.394 2.903,0.911 14.544,8.326 -4.001,15.583 -16.756,0.29 -2.984,-0.6 -12.255,-4.006 -8.22,20.761 11.676,5.469 2.586,1.605 12.016,11.681 -7.751,14.099 -16.301,-3.887 -2.741,-1.323 -10.873,-6.928 -13.125,18.065 9.949,8.201 2.105,2.197 8.734,14.303 -11.014,11.728 -14.823,-7.818 -2.325,-1.963 -8.809,-9.415 -17.205,14.234 7.597,10.417 1.492,2.652 4.903,16.025 -13.585,8.621 -12.412,-11.259 -1.764,-2.48 -6.191,-11.309 -20.205,9.507 4.768,11.979 0.786,2.94 0.763,16.741 -15.301,4.972 -9.223,-13.993 -1.092,-2.84 -3.184,-12.494 -21.934,4.185 1.639,12.788 0.03,3.043 L 21.51,213.78 5.453,214.79 0,198.944 l -0.351,-3.023 0.023,-12.893 -22.286,-1.402 -1.593,12.794 -0.727,2.955 -7.396,15.038 -15.804,-3.015 -1.341,-16.705 0.411,-3.015 3.229,-12.482 -21.237,-6.9 -4.725,11.996 -1.439,2.681 -10.904,12.726 -14.557,-6.85 2.855,-16.513 1.148,-2.818 6.232,-11.288 -18.853,-11.964 -7.56,10.444 -2.061,2.239 -13.726,9.614 -12.397,-10.255 6.873,-15.284 1.813,-2.444 8.842,-9.383 -15.285,-16.278 -9.92,8.237 -2.553,1.655 -15.685,5.9 -9.457,-13.017 10.457,-13.095 2.364,-1.916 10.898,-6.889 -10.757,-19.567 -11.656,5.51 -2.885,0.969 -16.66,1.813 -5.922,-14.959 13.385,-10.083 2.766,-1.268 12.27,-3.963 -5.553,-21.627 -12.661,2.438 -3.035,0.221 -16.587,-2.387 -2.017,-15.962 15.473,-6.437 2.995,-0.541 12.869,-0.786 0,-22.33 -12.869,-0.786 -2.995,-0.541 -15.473,-6.437 2.017,-15.962 16.587,-2.387 3.035,0.221 12.661,2.438 5.553,-21.627 -12.27,-3.963 -2.766,-1.268 -13.385,-10.083 5.922,-14.959 16.66,1.813 2.885,0.969 11.656,5.51 10.757,-19.567 -10.898,-6.889 -2.364,-1.916 -10.457,-13.095 9.457,-13.017 15.685,5.9 2.553,1.655 9.92,8.237 15.285,-16.278 -8.842,-9.383 -1.813,-2.444 -6.873,-15.284 12.397,-10.255 13.726,9.614 2.061,2.239 7.56,10.444 18.853,-11.964 -6.232,-11.288 -1.148,-2.818 -2.855,-16.513 14.557,-6.85 10.904,12.726 1.439,2.681 4.725,11.996 21.237,-6.9 -3.229,-12.482 -0.411,-3.015 1.341,-16.705 15.804,-3.015 7.396,15.038 0.727,2.955 1.593,12.794 22.286,-1.402 -0.023,-12.893 0.351,-3.023 5.453,-15.846 16.057,1.01 3.424,16.405 -0.03,3.043 -1.639,12.788 21.934,4.185 3.184,-12.494 1.092,-2.84 9.223,-13.993 15.301,4.972 -0.763,16.741 -0.786,2.94 -4.768,11.979 20.205,9.507 6.191,-11.309 1.764,-2.48 12.412,-11.259 13.585,8.621 -4.903,16.025 -1.492,2.652 -7.597,10.417 17.205,14.234 8.809,-9.415 2.325,-1.963 14.823,-7.818 11.014,11.728 -8.734,14.303 -2.105,2.197 -9.949,8.201 13.125,18.065 10.873,-6.928 2.741,-1.323 16.301,-3.887 7.751,14.099 -12.016,11.681 -2.586,1.605 -11.676,5.469 8.22,20.761 12.255,-4.006 2.984,-0.6 16.756,0.29 4.001,15.583 -14.544,8.326 -2.903,0.911 -12.67,2.394 z"
           id="path4102" />
      </g>
      <g
         transform="translate(3.3153983,14.62591)"
         id="g4115">
        <path
           sodipodi:type="arc"
           style="fill:none;stroke:#000000"
           id="path4111"
           sodipodi:cx="363.57144"
           sodipodi:cy="490.21933"
           sodipodi:rx="25"
           sodipodi:ry="25"
           d="m 388.57144,490.21933 c 0,13.80712 -11.19288,25 -25,25 -13.80712,0 -25,-11.19288 -25,-25 0,-13.80712 11.19288,-25 25,-25 13.80712,0 25,11.19288 25,25 z" />
        <path
           sodipodi:type="arc"
           style="fill:none;stroke:#000000"
           id="path4113"
           sodipodi:cx="370"
           sodipodi:cy="495.21933"
           sodipodi:rx="17.142857"
           sodipodi:ry="17.142857"
           d="m 387.14286,495.21933 c 0,9.46774 -7.67512,17.14286 -17.14286,17.14286 -9.46774,0 -17.14286,-7.67512 -17.14286,-17.14286 0,-9.46774 7.67512,-17.14286 17.14286,-17.14286 9.46774,0 17.14286,7.67512 17.14286,17.14286 z"
           transform="matrix(1.1821862,0,0,1.1821862,-73.837452,-95.222128)" />
      </g>
      <path
         transform="matrix(0.79023877,0,0,0.79023877,-14.283123,18.476043)"
         d="m 688.92404,615.47119 c 0,114.08889 -92.48731,206.5762 -206.5762,206.5762 -114.08889,0 -206.5762,-92.48731 -206.5762,-206.5762 0,-114.08888 92.48731,-206.5762 206.5762,-206.5762 114.08889,0 206.5762,92.48732 206.5762,206.5762 z"
         sodipodi:ry="206.5762"
         sodipodi:rx="206.5762"
         sodipodi:cy="615.47119"
         sodipodi:cx="482.34784"
         id="path4119"
         style="fill:none;stroke:#000000"
         sodipodi:type="arc" />
      <path
         transform="matrix(1.3419481,0,0,1.3419481,-99.247897,-184.34184)"
         d="m 311.88459,513.57208 c 0,18.75912 -15.20726,33.96638 -33.96638,33.96638 -18.75911,0 -33.96638,-15.20726 -33.96638,-33.96638 0,-18.75911 15.20727,-33.96638 33.96638,-33.96638 18.75912,0 33.96638,15.20727 33.96638,33.96638 z"
         sodipodi:ry="33.966381"
         sodipodi:rx="33.966381"
         sodipodi:cy="513.57208"
         sodipodi:cx="277.91821"
         id="path4133"
         style="fill:none;stroke:#000000"
         sodipodi:type="arc" />
      <path
         sodipodi:type="arc"
         style="fill:none;stroke:#000000"
         id="path4135"
         sodipodi:cx="277.91821"
         sodipodi:cy="513.57208"
         sodipodi:rx="33.966381"
         sodipodi:ry="33.966381"
         d="m 311.88459,513.57208 c 0,18.75912 -15.20726,33.96638 -33.96638,33.96638 -18.75911,0 -33.96638,-15.20726 -33.96638,-33.96638 0,-18.75911 15.20727,-33.96638 33.96638,-33.96638 18.75912,0 33.96638,15.20727 33.96638,33.96638 z"
         transform="matrix(1.3419481,0,0,1.3419481,88.7521,-184.34184)" />
      <path
         transform="matrix(1.3419481,0,0,1.3419481,-6.0649775,-278.34184)"
         d="m 311.88459,513.57208 c 0,18.75912 -15.20726,33.96638 -33.96638,33.96638 -18.75911,0 -33.96638,-15.20726 -33.96638,-33.96638 0,-18.75911 15.20727,-33.96638 33.96638,-33.96638 18.75912,0 33.96638,15.20727 33.96638,33.96638 z"
         sodipodi:ry="33.966381"
         sodipodi:rx="33.966381"
         sodipodi:cy="513.57208"
         sodipodi:cx="277.91821"
         id="path4137"
         style="fill:none;stroke:#000000"
         sodipodi:type="arc" />
      <path
         sodipodi:type="arc"
         style="fill:none;stroke:#000000"
         id="path4139"
         sodipodi:cx="277.91821"
         sodipodi:cy="513.57208"
         sodipodi:rx="33.966381"
         sodipodi:ry="33.966381"
         d="m 311.88459,513.57208 c 0,18.75912 -15.20726,33.96638 -33.96638,33.96638 -18.75911,0 -33.96638,-15.20726 -33.96638,-33.96638 0,-18.75911 15.20727,-33.96638 33.96638,-33.96638 18.75912,0 33.96638,15.20727 33.96638,33.96638 z"
         transform="matrix(1.3419481,0,0,1.3419481,-6.0649775,-90.34184)" />
      <path
         inkscape:connector-curvature="0"
         id="path4141"
         d="m 369.89275,710.64967 c -2.41219,-7.32911 -2.67655,-8.87959 -2.67655,-15.69759 l 0,-7.56525 -3.03572,-0.40515 c -1.66964,-0.22285 -7.07445,-0.616 -12.01068,-0.87369 l -8.97497,-0.46851 -1.08815,7.80909 c -0.92962,6.67135 -1.61282,8.90743 -4.68926,15.34768 l -3.6011,7.53858 -7.18128,-1.43212 -7.18127,-1.43213 -0.37511,-2.58727 c -1.39489,-9.62109 -1.26866,-13.99926 0.61822,-21.44129 1.03547,-4.084 1.62414,-7.66602 1.30814,-7.96003 -0.6277,-0.58403 -20.40511,-7.11451 -21.54614,-7.11451 -0.38677,0 -1.9003,3.0895 -3.3634,6.86555 -2.23454,5.76704 -3.56725,7.93598 -8.32921,13.55561 l -5.66902,6.69006 -2.71654,-1.38588 c -1.49409,-0.76224 -4.47819,-2.16497 -6.63133,-3.11719 l -3.91479,-1.7313 1.3768,-8.117 c 1.20476,-7.1028 1.85628,-9.01156 5.21431,-15.2766 l 3.8375,-7.1596 -9.84877,-6.23325 c -5.41683,-3.42829 -10.03026,-6.23325 -10.25208,-6.23325 -0.22181,0 -2.46793,2.81292 -4.99137,6.25095 -3.7346,5.08815 -5.82581,7.11443 -11.24186,10.89285 -3.65959,2.55305 -6.77248,4.64191 -6.91755,4.64191 -0.14505,0 -2.78376,-2.06188 -5.86379,-4.58195 l -5.60005,-4.58195 3.43103,-7.56091 c 2.84182,-6.26247 4.36834,-8.57223 8.88906,-13.44998 l 5.45801,-5.88906 -8.08128,-8.57522 c -4.44471,-4.71637 -8.25398,-8.57522 -8.46503,-8.57522 -0.21105,0 -3.08899,2.24067 -6.39542,4.97926 -3.30643,2.73859 -7.31649,5.43344 -8.91123,5.98854 -1.59474,0.55512 -5.04727,1.82752 -7.67229,2.82757 l -4.77277,1.81826 -4.09628,-5.4424 c -2.25296,-2.99333 -4.09629,-5.79111 -4.09629,-6.21731 0,-0.42619 2.20749,-3.58349 4.90552,-7.0162 4.05308,-5.15675 6.0695,-6.98607 11.60396,-10.52727 l 6.69844,-4.28597 -2.46554,-4.45509 c -1.35604,-2.45031 -3.84699,-7.02653 -5.53543,-10.16939 -1.68844,-3.14285 -3.16723,-5.8397 -3.28619,-5.993 -0.11896,-0.1533 -3.51944,1.19405 -7.55662,2.99412 -5.51701,2.45987 -8.84379,3.46059 -13.39302,4.02871 -10.85217,1.35527 -10.16423,1.63059 -12.83565,-5.13697 -1.27938,-3.24107 -2.47177,-6.24959 -2.64976,-6.6856 -0.17799,-0.43601 2.50599,-2.8778 5.96439,-5.4262 7.97525,-5.87676 7.23103,-5.47941 15.21657,-8.12418 3.73214,-1.23606 6.73927,-2.53238 6.68251,-2.8807 -0.22731,-1.39487 -5.50662,-22.08003 -5.6985,-22.32761 -0.11326,-0.14615 -3.67564,0.38138 -7.9164,1.17229 -7.4394,1.38746 -7.99925,1.39652 -15.92475,0.25779 l -8.21429,-1.18022 -0.93979,-6.67606 c -0.51688,-3.67183 -0.79828,-7.04327 -0.62532,-7.49207 0.17295,-0.4488 3.74643,-2.22397 7.94106,-3.9448 6.71166,-2.75345 8.5005,-3.1819 14.91104,-3.57143 l 7.28444,-0.44264 0.19584,-11.96428 c 0.15231,-9.3048 -0.007,-11.972 -0.71428,-11.99897 -10.06047,-0.38338 -14.90861,-1.31009 -21.98156,-4.20173 -4.125,-1.68642 -7.61854,-3.1756 -7.76342,-3.30928 -0.14488,-0.13368 0.1453,-3.45021 0.64484,-7.37007 1.0412,-8.17014 0.0116,-7.33822 10.78661,-8.71564 6.053,-0.77378 7.79631,-0.72313 14.46738,0.42033 4.17178,0.71506 7.69225,1.16759 7.82326,1.0056 0.13101,-0.16199 1.54891,-5.35398 3.15091,-11.53775 l 2.91271,-11.24321 -7.21751,-2.28799 c -6.16578,-1.95459 -8.23765,-3.04721 -14.21838,-7.49822 l -7.00088,-5.21023 1.50186,-3.75856 c 0.82602,-2.06721 2.02366,-5.1421 2.66141,-6.8331 l 1.15955,-3.07453 4.65297,0.45403 c 9.5789,0.93467 12.99436,1.7573 19.02023,4.58112 3.4032,1.5948 6.54493,2.89822 6.98162,2.8965 0.58415,-0.002 9.88508,-15.93126 11.71843,-20.06922 0.11559,-0.2609 -2.72306,-2.32515 -6.30812,-4.58725 -5.40253,-3.40888 -7.43492,-5.25255 -11.87328,-10.77073 l -5.35499,-6.65783 4.15261,-5.74164 c 2.28394,-3.1579 4.54386,-5.74163 5.02204,-5.74163 0.47818,0 4.17934,1.28489 8.22479,2.85532 5.99511,2.32728 8.39674,3.7355 12.98646,7.61475 4.36523,3.6895 5.88033,4.60222 6.73973,4.06012 0.60974,-0.38461 4.44974,-4.27686 8.53334,-8.64945 l 7.42472,-7.95016 -5.59301,-5.94323 c -4.79972,-5.10026 -6.03562,-6.97002 -8.71341,-13.18222 -1.71621,-3.98144 -2.92878,-7.54899 -2.69461,-7.92789 0.56486,-0.91397 10.13803,-8.73439 10.69198,-8.73439 0.23772,0 3.39382,2.0883 7.01355,4.64065 4.97417,3.5074 7.59241,5.99301 10.72172,10.17857 2.2772,3.04586 4.14783,5.779 4.15692,6.07364 0.0424,1.37085 2.74113,0.0812 11.72188,-5.60148 l 9.69908,-6.1372 -2.8932,-5.1128 c -4.24784,-7.50668 -4.73784,-8.83279 -5.99832,-16.23363 -0.63101,-3.70498 -1.29983,-7.24942 -1.48625,-7.87654 -0.2544,-0.8558 1.27844,-1.8917 6.1448,-4.15271 3.56606,-1.65686 6.74591,-2.91162 7.06634,-2.78834 0.32042,0.12327 3.00367,3.05823 5.96277,6.52212 4.56964,5.34918 5.78026,7.3544 8.03576,13.31016 l 2.65556,7.01217 5.08978,-1.58539 c 12.26201,-3.81944 17.58977,-5.72847 17.58977,-6.30271 0,-0.33891 -0.82511,-3.87122 -1.83357,-7.84958 -1.8443,-7.27574 -1.9323,-10.27019 -0.61566,-20.94999 l 0.36055,-2.92449 6.62115,-1.18265 c 3.64163,-0.65046 6.85298,-1.18265 7.13632,-1.18265 0.28335,0 2.2393,3.51303 4.34658,7.80673 3.44292,7.01515 3.92254,8.57569 4.73015,15.39021 l 0.89874,7.58348 1.85644,-0.36008 c 1.02104,-0.19804 6.4368,-0.57555 12.03502,-0.83891 l 10.17857,-0.47884 0,-7.91193 c 0,-7.19409 0.23868,-8.63714 2.63079,-15.90524 l 2.63079,-7.99332 7.19064,0.37813 c 3.95485,0.20797 7.30015,0.4714 7.43399,0.5854 0.13385,0.11401 1.02464,3.84777 1.97952,8.29725 1.57341,7.33156 1.66525,8.69264 0.97975,14.51855 -0.41603,3.53571 -0.89093,7.07142 -1.05533,7.85714 -0.2752,1.3153 0.59059,1.59322 10.91976,3.50522 6.17027,1.14216 11.49719,2.10645 11.83762,2.14286 0.34044,0.0364 1.52963,-3.37744 2.64266,-7.58635 1.72127,-6.50898 2.68523,-8.64379 6.45059,-14.28571 2.4348,-3.64824 4.51995,-6.74679 4.63367,-6.88567 0.1137,-0.13888 3.32245,0.7855 7.13055,2.05416 l 6.9238,2.30667 -0.37609,8.66012 c -0.35063,8.07391 -0.57263,9.13495 -3.27963,15.67464 l -2.90354,7.01451 10.44894,4.96949 c 5.74692,2.73322 10.75232,4.86836 11.12311,4.74477 0.37079,-0.1236 2.32598,-3.1774 4.34486,-6.78622 2.96195,-5.29459 4.83112,-7.60564 9.68073,-11.9693 3.87468,-3.48643 6.39495,-5.26011 7.0934,-4.99209 1.746,0.67 11.54054,7.00033 11.52761,7.45043 -0.006,0.22607 -1.10878,3.88672 -2.44952,8.13477 -1.99614,6.32462 -3.22319,8.80484 -6.77391,13.69194 -2.38491,3.28252 -4.33619,6.25062 -4.33619,6.59578 0,0.34516 4.05818,3.95434 9.01818,8.02041 l 9.01818,7.39285 5.80325,-5.99807 c 4.78919,-4.94997 7.01635,-6.62214 12.7456,-9.5695 l 6.94235,-3.57143 5.15049,5.13472 5.15049,5.13471 -4.5252,7.50265 c -3.89829,6.46327 -5.34847,8.16476 -10.46786,12.28201 -3.76275,3.02617 -5.7527,5.09058 -5.42479,5.62779 2.10214,3.44387 13.29895,18.2467 13.80175,18.2467 0.34655,0 2.9279,-1.47287 5.73634,-3.27303 2.80845,-1.80017 6.10638,-3.72182 7.32874,-4.27033 2.20816,-0.99088 13.96775,-3.88522 15.7855,-3.88522 0.52262,0 2.45254,2.77851 4.28869,6.17447 l 3.33848,6.17447 -5.5951,5.70092 c -4.80221,4.89305 -6.63261,6.19659 -12.91652,9.19869 -4.02679,1.92376 -7.32143,3.72813 -7.32143,4.00969 0,0.56949 7.91179,21.07091 8.31067,21.53501 0.13861,0.1613 3.5948,-0.73313 7.68041,-1.9876 6.84977,-2.1032 8.08804,-2.26514 15.89723,-2.07897 l 8.46883,0.2019 1.54855,5.71428 c 0.8517,3.14286 1.56835,6.35714 1.59258,7.14286 0.0331,1.07396 -1.68789,2.42838 -6.93305,5.45636 -5.87492,3.39152 -8.1489,4.26678 -14.39521,5.54073 -4.07998,0.83212 -7.57258,1.66738 -7.76133,1.85614 -0.18876,0.18875 0.26997,5.4097 1.01939,11.60212 l 1.36259,11.25893 8.9261,0.0139 c 7.70491,0.0119 9.88206,0.29443 15.91353,2.06471 l 6.98743,2.05086 -0.20171,7.51477 -0.20172,7.51478 -7.5,2.0612 c -6.61136,1.81698 -8.47195,2.03607 -15.703,1.84909 l -8.203,-0.21212 -1.33945,10.88832 c -0.7367,5.98857 -1.16643,11.33919 -0.95497,11.89026 0.22307,0.58132 1.98015,1.22019 4.18531,1.52178 6.94489,0.94982 11.19996,2.42161 17.72199,6.12984 3.55264,2.01993 6.64172,3.96768 6.86462,4.32835 0.22291,0.36068 -0.32318,3.6775 -1.21353,7.37071 l -1.61882,6.71494 -7.90529,0.23431 c -7.17626,0.21269 -8.62988,0.0232 -15.76243,-2.05484 -4.32143,-1.25903 -8.07115,-2.0687 -8.3327,-1.79927 -0.67338,0.69368 -8.46028,20.28353 -8.41848,21.17876 0.019,0.40683 3.36536,2.31093 7.43638,4.23134 6.32028,2.98143 8.20779,4.30232 12.91727,9.03959 l 5.51543,5.54796 -3.4141,6.31755 c -1.87776,3.47465 -3.45664,6.3806 -3.50863,6.45768 -0.052,0.0771 -3.814,-0.74795 -8.36005,-1.8334 -7.15216,-1.7077 -9.15229,-2.53307 -14.84876,-6.12742 -3.62078,-2.28463 -6.82801,-3.87032 -7.12719,-3.52374 -0.29917,0.34657 -2.74435,3.68371 -5.43372,7.41585 -2.68938,3.73214 -5.64065,7.785 -6.55838,9.00635 l -1.66858,2.22063 6.27754,5.3391 c 5.21124,4.4322 6.98266,6.52068 10.42868,12.29529 l 4.15112,6.95619 -4.48456,4.76979 c -2.46651,2.62338 -4.70715,5.03716 -4.97921,5.36393 -0.27205,0.32679 -3.90806,-1.22865 -8.08003,-3.45652 -6.3983,-3.41675 -8.40338,-4.93963 -12.81233,-9.7311 l -5.22693,-5.68045 -9.01835,7.35125 c -4.96008,4.04319 -9.03317,7.67268 -9.0513,8.06554 -0.0181,0.39286 1.98673,3.53652 4.45523,6.98592 3.75841,5.25187 4.86052,7.51102 6.77807,13.89399 1.25944,4.19229 2.02825,7.88398 1.70848,8.20376 -0.31978,0.31978 -3.09666,2.16969 -6.17084,4.11091 l -5.58942,3.52949 -6.21279,-5.67826 c -5.09581,-4.65738 -6.88915,-6.89916 -9.97483,-12.46918 -2.06912,-3.735 -3.87073,-6.79092 -4.00358,-6.79092 -0.13284,0 -4.35786,1.95667 -9.38892,4.34815 -5.03106,2.39148 -9.84276,4.62295 -10.69267,4.9588 -1.53736,0.60752 -1.53026,0.64839 1.38526,7.97328 2.83847,7.1313 2.93191,7.6297 2.97386,15.86302 l 0.0433,8.5004 -6.03912,2.03532 c -3.32151,1.11943 -6.40454,2.03532 -6.85117,2.03532 -0.44662,0 -2.82931,-3.13393 -5.29486,-6.96429 -3.7451,-5.81819 -4.79179,-8.16915 -6.36025,-14.28571 -1.33797,-5.21768 -2.18612,-7.31966 -2.95173,-7.31526 -1.465,0.008 -22.14777,4.03548 -22.44192,4.36959 -0.12934,0.1469 0.22466,3.48138 0.78667,7.40995 0.97268,6.79938 0.94463,7.52917 -0.58351,15.17612 -0.88294,4.41829 -1.7857,8.31749 -2.00615,8.66487 -0.22045,0.34739 -3.61601,0.85962 -7.54569,1.1383 l -7.14487,0.50669 -2.67656,-8.13236 3e-5,0 z m 14.31588,-42.7497 c 85.78565,-9.31584 149.53432,-82.85277 146.35807,-168.83052 -0.71552,-19.36852 -4.36781,-37.34487 -10.96879,-53.98768 -21.95188,-55.34652 -70.11514,-93.50279 -129.52457,-102.61298 -11.35581,-1.74137 -35.07276,-1.74137 -46.42857,0 -54.57887,8.36944 -99.9968,41.41215 -123.96485,90.18761 -24.47415,49.80539 -21.82779,109.34168 6.99273,157.31823 8.44505,14.0582 23.84797,31.7403 36.61497,42.03292 24.11123,19.43823 54.91726,32.41798 85.00001,35.81376 8.15287,0.92031 27.77497,0.96328 35.921,0.0787 z"
         style="fill:#4d4d4d;fill-opacity:1;fill-rule:nonzero;stroke:#000000;stroke-width:0.71428573;stroke-opacity:1;filter:url(#filter5829)" />
      <path
         inkscape:connector-curvature="0"
         id="path5801"
         d="m 357.14521,667.0877 c -70.49598,-4.13603 -130.5958,-54.0686 -147.98632,-122.95108 -1.37221,-5.43524 -2.89908,-13.76768 -3.93346,-21.46574 -0.97033,-7.22137 -0.82682,-29.48658 0.24161,-37.48477 6.45676,-48.33488 31.97955,-89.42888 72.03845,-115.98841 21.00743,-13.92819 43.68252,-22.23644 70.73935,-25.91923 6.53093,-0.88895 30.42789,-0.87901 37.37564,0.0155 40.02663,5.15357 75.73068,23.59484 101.66308,52.50935 23.23596,25.90798 36.6502,55.37733 41.08095,90.24949 1.19523,9.40705 1.20087,28.03708 0.0114,37.62818 -4.70689,37.95313 -21.50726,71.79786 -48.65523,98.01708 -32.76652,31.64555 -77.08939,48.05828 -122.57547,45.38959 l -1e-5,0 z m 17.11106,-22.42562 c 10.06328,-1.6344 18.46483,-5.9593 25.66852,-13.21348 8.23341,-8.29112 12.70586,-18.62547 13.30498,-30.74344 1.04847,-21.20672 -12.57976,-40.16755 -33.44258,-46.52832 -4.13022,-1.25924 -5.24073,-1.37943 -12.85453,-1.39118 -7.6503,-0.0118 -8.69779,0.0993 -12.77253,1.35456 -15.96565,4.91839 -27.16152,16.11821 -32.00921,32.02047 -1.22532,4.01952 -1.35519,5.21312 -1.3626,12.52417 -0.01,9.50683 0.8158,13.33247 4.46842,20.70947 9.09403,18.36672 28.82925,28.54365 48.99953,25.26775 l 0,0 z m -94.95434,-93.75944 c 16.83997,-2.05509 30.63853,-12.50799 37.2679,-28.23176 2.78142,-6.59708 3.57582,-11.47025 3.24811,-19.92525 -0.23521,-6.06859 -0.49911,-7.79124 -1.82218,-11.89455 -5.26972,-16.34333 -18.52192,-28.17938 -35.36972,-31.59009 -6.21871,-1.25893 -15.87459,-0.81851 -21.98701,1.00288 -12.56888,3.74528 -22.52941,12.11195 -28.29663,23.76868 -3.08664,6.23874 -4.08492,9.65547 -4.7778,16.35263 -0.8408,8.12692 0.92487,18.22055 4.38373,25.06001 6.61616,13.08265 19.3984,22.75743 32.98192,24.96379 7.06368,1.14735 8.58656,1.19966 14.37168,0.49366 l 0,0 z m 192.6866,-0.75105 c 25.6929,-5.83093 41.22503,-31.58468 34.58522,-57.34558 -3.97742,-15.43144 -15.99858,-27.71474 -31.91004,-32.6059 -4.04656,-1.2439 -5.18647,-1.36766 -12.77671,-1.38716 -7.17321,-0.0184 -8.88157,0.13648 -12.26754,1.1124 -8.26318,2.38163 -14.99173,6.30737 -20.68958,12.07123 -8.67107,8.77154 -12.85041,18.30061 -13.36432,30.47125 -0.42,9.94665 1.02163,16.47818 5.44989,24.69147 6.88922,12.77772 19.97374,21.81815 34.34766,23.73166 4.5606,0.60712 12.18673,0.26797 16.62542,-0.73937 l 0,0 z m -97.3154,-20.88437 c 4.55602,-1.5675 7.02877,-3.08931 10.24381,-6.30435 14.05113,-14.05112 7.91444,-37.18516 -11.38369,-42.91414 -5.81104,-1.72511 -13.63885,-0.69633 -19.54527,2.56876 -7.99258,4.41833 -13.29679,14.31796 -12.66542,23.63841 0.85942,12.68699 9.44683,21.88668 22.57964,24.18956 2.2502,0.39458 8.04046,-0.23882 10.77093,-1.17824 z m 1.95326,-73.05289 c 10.54526,-2.00191 21.52555,-9.13608 27.97751,-18.1777 2.91748,-4.08848 6.01057,-10.66028 7.3533,-15.62339 1.61399,-5.96574 1.60956,-16.98739 -0.009,-22.98072 -4.76964,-17.65875 -18.34114,-30.56054 -35.8866,-34.11571 -5.7401,-1.16309 -16.35413,-0.79964 -21.6679,0.74196 -7.82143,2.26912 -13.62955,5.62288 -19.68755,11.36813 -6.12721,5.81087 -10.25093,12.83306 -12.82888,21.84594 -1.54044,5.38563 -1.63793,16.72251 -0.19239,22.37144 1.98951,7.77465 5.16823,14.02827 9.83477,19.34835 11.60424,13.22937 27.4444,18.57476 45.10698,15.2217 l 0,0 z"
         style="fill:#666666;fill-opacity:1;fill-rule:nonzero;stroke:#000000;stroke-width:0.50507629;stroke-opacity:1;filter:url(#filter5817)" />
    </g>
  </g>
</svg>
